<svg width="12" height="12" fill="none" xmlns="http://www.w3.org/2000/svg"><path d="M9.55 7.465a.718.718 0 00-.191.612l.533 3.107a.699.699 0 01-.27.683.633.633 0 01-.702.05l-2.657-1.459a.654.654 0 00-.3-.082h-.162a.47.47 0 00-.162.056L2.98 11.898a.67.67 0 01-.426.07c-.355-.071-.592-.427-.534-.803l.534-3.107a.73.73 0 00-.191-.619L.197 5.23a.707.707 0 01-.161-.714.684.684 0 01.533-.473l2.982-.455a.669.669 0 00.528-.385L5.393.366a.656.656 0 01.12-.17l.054-.044a.407.407 0 01.096-.083L5.73.044 5.83 0h.252a.672.672 0 01.528.379l1.331 2.823a.67.67 0 00.498.385l2.982.455a.69.69 0 01.546.473.71.71 0 01-.174.714L9.55 7.465z" fill="#fff"/></svg>