<svg width="142" height="121" fill="none" xmlns="http://www.w3.org/2000/svg"><g clip-path="url(#clip0_45_23)"><path d="M2.88 74.2a20 20 0 016.55-14.13c5.42-4.62 13.12-5.44 20-7.49a38.21 38.21 0 0013.22-6.64c11.15-9 14.51-25.07 26.39-33.17 3.69-2.52 8.8-4.06 12.66-1.78 2.64 1.56 4 4.54 4.68 7.46.68 2.92.79 5.95 1.71 8.8 1.73 5.43 6.13 9.66 10.73 13.2 2.77 2.13 5.69 4.12 8 6.7 2.31 2.58 4 5.9 3.69 9.3-.41 4.62-4.27 8.35-5.09 12.91-1.43 8 6.63 15.27 5.49 23.26-.7 4.91-4.87 8.84-9.61 10.75-4.74 1.91-10 2.13-15.12 2.21-5.12.08-10.36.06-15.26 1.51-5.2 1.54-9.72 4.65-14.63 6.92-10.25 4.72-21.89 5.64-33.22 6.49-5.33.4-11.32.54-15-3.88-3.25-3.88-.78-8.41 0-12.87.93-4.97.8-10.29-1.66-14.75a26.84 26.84 0 01-3.53-14.8z" fill="#fff"/><path d="M92.72 62.91c5.09 11.41 7.89 10.42 4 14.6-19.39 20.64-58.59 35-73.4 33.07-2.62-.34-3.15-2.72-3.55-5.48C14.55 69 7.47 70.07 14.9 67.69A258.86 258.86 0 0082 35.47c.87 2.68 1.75 4.34 4 9.78 1.47 5.62 5.45 14.81 6.72 17.66z" fill="#1C1F28"/><path d="M58.86 88.42c-4-2.45-4.59-6.8-4.08-11.33.43-3.86 4.8-8.45 9.24-6.32a8.57 8.57 0 013.24 2.66c5.74 7.69-.9 19.57-8.4 14.99zm7.37-8.27c0-3.8-3.06-8.12-6.21-5.69-2.08 1.6-2.53 3.78-2.22 6.13.23 1.75.62 3.51 2.22 4.73 2 1.51 4 1.27 5.08-.91a16.23 16.23 0 001.13-4.26zm12.94-7.94c11.22.93 10.92.87 11.44 1.09a1.46 1.46 0 01-.13 2.75c-3.34.85-14.12-2.51-13.38.82.41 1.84 1.51 3.83 1.51 5.62 0 1-3.2 6.14-6.74-13.41-.17-1-.24-3 .77-3.12 1.01-.12 1.39 1.14 2 2.57a4 4 0 01.24.76 1.21 1.21 0 002.11.42c2.12-2.76 3.9-7.58 5.26-8.77a1.19 1.19 0 01.83-.1c.62.1.67 1.77.11 3.32-1.76 4.84-2.11 4.78-4.02 8.05zM39.79 92.32c-2.08-4.32-1.61-10.66 3.49-13.69 2.33-1.38 6.55-.41 7.91 1.89 7.55 12.8-7.05 20.82-11.4 11.8zM47.62 81c-4.5-1.53-7.89 4.16-4.58 10.36a3.519 3.519 0 006.08.3c2.21-2.97 1.47-9.66-1.5-10.66zM35 87.43c-.53 1.59-3.32-2.67-5.47-1.06-2.62 2-3.06 5.88-2.57 9 .6 3.83 4.53 4.62 6.39 2.1.74-1 1.84-6.1 4.11-2.9.59.83-.93 5.32-4.7 7.07-6.83 3.16-12.75-6-7.63-15.26 2-3.66 7.91-4.92 10.18-1.22a1.71 1.71 0 01-.31 2.27zm38-35.29c2.64 0 4.22 1 4.77 2.93a5.46 5.46 0 01-2.58 5.59c-2.67 1.32-5.69 1.16-7.39-1.18-.84-1.15 1.12-3 2.43-2.08.57.41 1.78 2.47 3.9 1.38 2.12-1.09 2-4-.1-4.24-1.89-.2-8 1.64-7.27-3.41.41-2.86 4.15-5.77 7.66-3.73 1.32.77.72 2.62-.85 2.15a2.68 2.68 0 00-3.47 1.62c-.1.16-.24 1.83 2.9.97zM33.19 67.5c.33.94.11 1.62.36 1.58a9.75 9.75 0 003.23-1.37c1.49-.74 2-.28 2.07.1.57 1.34-.88 1.69-4.6 3.66.1.47.25 1.39.38 1.92 2.32.13 4.41-2.39 5.64-1 .45.5.15 1.44-.65 2.06a8.62 8.62 0 01-5.15 1.68c-3.52.1-3.77-6.32-3-9.66.3-1.27 1.11-1.6 5.07-2.89a3.232 3.232 0 011.2 0c.61.07 1 1 .54 1.37a12.386 12.386 0 01-2.23 1.49c-.934.403-1.889.757-2.86 1.06zm14.88-5.11c1.83 5.67 2.85 8 1.36 8.46-2 .63-3.18-5.22-3.9-7.61-1.89.44-3.54 1.07-3.79.15s.52-1.19 1.1-1.56c1-.65 5.28-2.48 6.1-2.81 2.24-.92 3.78 1.13-.87 3.37zM23.91 76.67a22.304 22.304 0 013.2-1.23c2.05-.35 2.79 1.39 1.21 2.34-3 1.79-6.85 4.3-7.27.93-.07-.54-1.34-7.39-1-7.81.51-1.12 2.11-1.06 2.29-.67 1.12 2.29.91 3.26 1.57 6.44zm35.65-19.26c-.05.41-.07.7-.12 1C59 60.52 56.63 60.09 57 58a8.42 8.42 0 01.81-2.18.88.88 0 011.47.24c.134.44.228.892.28 1.35z" fill="#fff"/><path d="M130.48.62c-11 3.9-24.24 18.32-47.56 34.2 1.46 2.79 2 4.83 4.13 9.31 7.82-3.69 42.52-18.92 53-31.54 4.61-5.54-.68-15.12-9.57-11.97zm5 8.56a7.778 7.778 0 01-2.83 3c-1.54 1.1-11 6.76-12.08 3.22-1-3 7.31-7.82 9.19-9 1.44-.93 3.24-1.86 4.84-.88a3.004 3.004 0 01.91 3.66h-.03z" fill="#1C1F28"/><path d="M70.3 89.8c-7.67 4.19-15 8.72-23.23 11.82-11.65 4.38-27.35 5.15-24.3 5.44C37.3 108.4 59.46 98.9 70.6 90.17c.22-.17-.06-.5-.3-.37zM111.24 66a14.11 14.11 0 019.36-8.78 3.46 3.46 0 012.52.09 2.52 2.52 0 011 1c1.12 2 0 4.62-1.63 6.26-1.63 1.64-3.85 2.72-5.64 4.24-2.77 2.37-3.59 6-6 8.36-1.4-3.17-.85-7.83.39-11.17zm2.38-13.85c-.25-2.78-2.29-5.25-2.25-8A5.062 5.062 0 01113.6 40a4.42 4.42 0 014.73 0 5.263 5.263 0 011.93 2.78 11.075 11.075 0 01-1.26 8.84c-1.05 1.82-3.31 5.35-5.76 5.1-.08-1.44.52-3.02.38-4.57zM2.7 101.83c-1.12-.21-1.7-1.36-2.08-2.41-.59-1.92-1.21-5.37.45-7a2.64 2.64 0 014 .11c1.67 1.92 1.46 10.02-2.37 9.3zm37.58-63.27c1.55.79 1.67 3 .69 4.45-1.43 2-7.81 5.64-8.36 1.4-.4-3.14 4.65-7.41 7.67-5.85z" fill="#fff"/></g><defs><clipPath id="clip0_45_23"><path fill="#fff" d="M0 0h141.76v120.68H0z"/></clipPath></defs></svg>